<?xml version="1.0" encoding="UTF-8"?>
<svg version="1.1" xmlns="http://www.w3.org/2000/svg" width="32" height="32">
<path d="M0 0 C0.79921875 0.00902344 1.5984375 0.01804688 2.421875 0.02734375 C3.02515625 0.03894531 3.6284375 0.05054688 4.25 0.0625 C4.25 0.7225 4.25 1.3825 4.25 2.0625 C5.24 2.3925 6.23 2.7225 7.25 3.0625 C6.47095672 16.6957574 6.47095672 16.6957574 4.25 23.0625 C4.8275 23.37703125 5.405 23.6915625 6 24.015625 C6.7425 24.44359375 7.485 24.8715625 8.25 25.3125 C9.36375 25.93898438 9.36375 25.93898438 10.5 26.578125 C11.0775 27.06796875 11.655 27.5578125 12.25 28.0625 C12.25 29.3825 12.25 30.7025 12.25 32.0625 C1.69 32.0625 -8.87 32.0625 -19.75 32.0625 C-18.75 28.0625 -18.75 28.0625 -16.71484375 25.80859375 C-13.82209933 21.76565274 -14.26506201 17.79900483 -14.34960938 13.03320312 C-14.2875572 9.18231804 -13.81032492 6.62671799 -11.46484375 3.62109375 C-7.58657428 -0.03396597 -5.1503227 -0.07574004 0 0 Z " fill="#232E3A" transform="translate(19.75,-0.0625)"/>
<path d="M0 0 C0.79921875 0.00902344 1.5984375 0.01804688 2.421875 0.02734375 C3.02515625 0.03894531 3.6284375 0.05054688 4.25 0.0625 C4.25 0.7225 4.25 1.3825 4.25 2.0625 C5.24 2.3925 6.23 2.7225 7.25 3.0625 C7.16239411 5.12576977 7.05420727 7.1881716 6.9375 9.25 C6.87949219 10.39855469 6.82148438 11.54710937 6.76171875 12.73046875 C6.22745494 16.20930104 5.2552674 18.20781638 3.25 21.0625 C2.125 19.375 2.125 19.375 1.25 17.0625 C2.125 14.3125 2.125 14.3125 3.25 12.0625 C2.26 12.3925 1.27 12.7225 0.25 13.0625 C-0.141875 12.4025 -0.53375 11.7425 -0.9375 11.0625 C-2.60416667 8.77083333 -2.60416667 8.77083333 -5.4375 8.8125 C-6.200625 8.895 -6.96375 8.9775 -7.75 9.0625 C-7.87375 8.258125 -7.9975 7.45375 -8.125 6.625 C-8.434375 5.3565625 -8.434375 5.3565625 -8.75 4.0625 C-9.41 3.7325 -10.07 3.4025 -10.75 3.0625 C-7.55037281 -0.13712719 -4.37969494 -0.06440728 0 0 Z " fill="#6B6250" transform="translate(19.75,-0.0625)"/>
<path d="M0 0 C1.65 0.33 3.3 0.66 5 1 C4.67 3.31 4.34 5.62 4 8 C4.66 8.33 5.32 8.66 6 9 C6.061875 9.598125 6.12375 10.19625 6.1875 10.8125 C7.53262291 14.43398475 10.6442034 15.29159446 14 17 C14 18.32 14 19.64 14 21 C12.20866022 21.05391993 10.41686101 21.09275571 8.625 21.125 C7.62726562 21.14820312 6.62953125 21.17140625 5.6015625 21.1953125 C3 21 3 21 1 19 C1.35355436 16.73725212 1.97544426 15.04911148 3 13 C0.83312509 10.72478134 -1.45620509 8.84205838 -4 7 C-2.35 6.67 -0.7 6.34 1 6 C1 5.34 1 4.68 1 4 C0.34 4 -0.32 4 -1 4 C-0.67 2.68 -0.34 1.36 0 0 Z " fill="#725A50" transform="translate(18,11)"/>
<path d="M0 0 C0.99 0 1.98 0 3 0 C3.33 1.65 3.66 3.3 4 5 C5.65 4.67 7.3 4.34 9 4 C10.125 8.75 10.125 8.75 9 11 C9.66 11 10.32 11 11 11 C11 11.66 11 12.32 11 13 C9.02 13.66 7.04 14.32 5 15 C4.34 13.68 3.68 12.36 3 11 C2.01 11.33 1.02 11.66 0 12 C-0.66 11.67 -1.32 11.34 -2 11 C-2.25 3.375 -2.25 3.375 0 0 Z " fill="#213545" transform="translate(8,4)"/>
<path d="M0 0 C-0.350625 0.556875 -0.70125 1.11375 -1.0625 1.6875 C-2.21845993 4.53886783 -1.80967438 6.08517222 -1 9 C-11.55808656 9.18451025 -11.55808656 9.18451025 -16 8 C-16 5 -16 5 -13.875 2.375 C-9.35405032 -1.35969756 -5.54687231 -1.46828973 0 0 Z " fill="#12282F" transform="translate(22,23)"/>
<path d="M0 0 C0.79921875 0.00902344 1.5984375 0.01804688 2.421875 0.02734375 C3.02515625 0.03894531 3.6284375 0.05054688 4.25 0.0625 C4.58 1.7125 4.91 3.3625 5.25 5.0625 C2.94 5.0625 0.63 5.0625 -1.75 5.0625 C-2.08 6.3825 -2.41 7.7025 -2.75 9.0625 C-4.4 9.0625 -6.05 9.0625 -7.75 9.0625 C-7.87375 8.258125 -7.9975 7.45375 -8.125 6.625 C-8.434375 5.3565625 -8.434375 5.3565625 -8.75 4.0625 C-9.41 3.7325 -10.07 3.4025 -10.75 3.0625 C-7.55037281 -0.13712719 -4.37969494 -0.06440728 0 0 Z " fill="#6F9091" transform="translate(19.75,-0.0625)"/>
<path d="M0 0 C2.97 1.65 5.94 3.3 9 5 C9 6.32 9 7.64 9 9 C6.03 9 3.06 9 0 9 C0 6.03 0 3.06 0 0 Z " fill="#061622" transform="translate(23,23)"/>
<path d="M0 0 C0.99 0 1.98 0 3 0 C4.31626692 3.61973402 5 6.09567131 5 10 C2.61435923 9.42415568 0.33317216 8.77772405 -2 8 C-1.125 1.125 -1.125 1.125 0 0 Z " fill="#295263" transform="translate(8,4)"/>
<path d="M0 0 C-0.350625 0.556875 -0.70125 1.11375 -1.0625 1.6875 C-2.21845993 4.53886783 -1.80967438 6.08517222 -1 9 C-2.65 8.67 -4.3 8.34 -6 8 C-6 6.02 -6 4.04 -6 2 C-7.65 1.67 -9.3 1.34 -11 1 C-11 0.67 -11 0.34 -11 0 C-6.98195309 -0.84098656 -3.98196457 -1.05404945 0 0 Z " fill="#3B3024" transform="translate(22,23)"/>
<path d="M0 0 C-1.98 0.99 -1.98 0.99 -4 2 C-4 2.99 -4 3.98 -4 5 C-2.35 5 -0.7 5 1 5 C1 5.33 1 5.66 1 6 C-2.63 6 -6.26 6 -10 6 C-9 2 -9 2 -6.125 0.1875 C-3 -1 -3 -1 0 0 Z " fill="#3B8BAB" transform="translate(10,26)"/>
<path d="M0 0 C1.32 0 2.64 0 4 0 C5.34152439 4.02457316 5.27060777 7.8055795 5 12 C4.01 12.66 3.02 13.32 2 14 C0.7619986 10.42355152 1.25073929 7.66305234 2 4 C1.34 3.67 0.68 3.34 0 3 C0 2.01 0 1.02 0 0 Z " fill="#9C684A" transform="translate(20,7)"/>
<path d="M0 0 C3.41021743 0.78697325 6.68885166 1.87119943 10 3 C9.34 4.32 8.68 5.64 8 7 C7.01 6.34 6.02 5.68 5 5 C5 4.34 5 3.68 5 3 C4.01 3.33 3.02 3.66 2 4 C1.34 3.67 0.68 3.34 0 3 C0 2.01 0 1.02 0 0 Z " fill="#0D2634" transform="translate(6,12)"/>
<path d="M0 0 C2.3125 -0.25 2.3125 -0.25 5 0 C6.8125 2 6.8125 2 8 4 C7.67 4.66 7.34 5.32 7 6 C4.03 5.505 4.03 5.505 1 5 C0.67 3.35 0.34 1.7 0 0 Z " fill="#20475B" transform="translate(6,15)"/>
<path d="M0 0 C1.65 0.33 3.3 0.66 5 1 C4.125 5.75 4.125 5.75 3 8 C2.34 8 1.68 8 1 8 C1 6.68 1 5.36 1 4 C0.34 4 -0.32 4 -1 4 C-0.67 2.68 -0.34 1.36 0 0 Z " fill="#9E7F74" transform="translate(18,11)"/>
<path d="M0 0 C1.4540625 0.0309375 1.4540625 0.0309375 2.9375 0.0625 C2.2775 2.3725 1.6175 4.6825 0.9375 7.0625 C0.2775 7.0625 -0.3825 7.0625 -1.0625 7.0625 C-1.18625 6.258125 -1.31 5.45375 -1.4375 4.625 C-1.746875 3.3565625 -1.746875 3.3565625 -2.0625 2.0625 C-2.7225 1.7325 -3.3825 1.4025 -4.0625 1.0625 C-3.0625 0.0625 -3.0625 0.0625 0 0 Z " fill="#90D8E7" transform="translate(13.0625,1.9375)"/>
<path d="M0 0 C0 0.66 0 1.32 0 2 C-2.64 2.66 -5.28 3.32 -8 4 C-7.67 3.01 -7.34 2.02 -7 1 C-8.65 1 -10.3 1 -12 1 C-8.00439392 -1.83022097 -4.57262677 -0.76210446 0 0 Z " fill="#6FACB8" transform="translate(23,1)"/>
<path d="M0 0 C0.66 0 1.32 0 2 0 C2 2.31 2 4.62 2 7 C0.68 6.34 -0.64 5.68 -2 5 C-1.125 1.125 -1.125 1.125 0 0 Z " fill="#9FBEC6" transform="translate(21,25)"/>
<path d="M0 0 C1.32 0.33 2.64 0.66 4 1 C4 3.31 4 5.62 4 8 C3.01 8 2.02 8 1 8 C0.67 5.36 0.34 2.72 0 0 Z " fill="#030606" transform="translate(13,24)"/>
<path d="M0 0 C1.98 0 3.96 0 6 0 C4.68 0.33 3.36 0.66 2 1 C2 1.99 2 2.98 2 4 C2.99 4.33 3.98 4.66 5 5 C4.01 5.66 3.02 6.32 2 7 C0 5 0 5 -0.125 2.375 C-0.08375 1.59125 -0.0425 0.8075 0 0 Z " fill="#6D4030" transform="translate(18,6)"/>
<path d="M0 0 C1.485 0.99 1.485 0.99 3 2 C2.34 4.31 1.68 6.62 1 9 C0.67 9 0.34 9 0 9 C0 6.03 0 3.06 0 0 Z " fill="#1A2631" transform="translate(23,23)"/>
<path d="M0 0 C0.763125 0.0825 1.52625 0.165 2.3125 0.25 C2.3125 0.91 2.3125 1.57 2.3125 2.25 C0.34783587 3.31775224 -1.65605359 4.31553465 -3.6875 5.25 C-4.3475 4.92 -5.0075 4.59 -5.6875 4.25 C-3.34903846 0.31153846 -3.34903846 0.31153846 0 0 Z " fill="#3A5361" transform="translate(7.6875,22.75)"/>
<path d="M0 0 C0.99 0 1.98 0 3 0 C3.33 2.64 3.66 5.28 4 8 C2.68 7.67 1.36 7.34 0 7 C0.66 5.02 1.32 3.04 2 1 C1.34 0.67 0.68 0.34 0 0 Z " fill="#417E93" transform="translate(9,6)"/>
</svg>
